<svg fill="none" xmlns="http://www.w3.org/2000/svg">
    <path fill-rule="evenodd" clip-rule="evenodd"
        d="M12.0713 4.33333C10.1496 4.33333 8.53087 5.63044 8.04287 7.3969C10.7668 7.64831 12.9352 9.81677 13.1866 12.5407C14.9531 12.0527 16.2502 10.4339 16.2502 8.51225C16.2502 6.2043 14.3793 4.33333 12.0713 4.33333ZM11.6912 13.0711C11.6912 10.7631 9.82025 8.89215 7.5123 8.89215C5.20434 8.89215 3.33337 10.7631 3.33337 13.0711C3.33337 15.379 5.20434 17.25 7.5123 17.25C9.82025 17.25 11.6912 15.379 11.6912 13.0711ZM5.61279 13.0711L7.5123 14.9706L9.41181 13.0711L7.5123 11.1716L5.61279 13.0711Z"
        fill="currentColor"></path>
    <path d="M8.33333 3.5H2.5V9.33333L8.33333 3.5Z" fill="#F0B90B"></path>
    <path d="M11.6667 18.5H17.5V12.6667L11.6667 18.5Z" fill="#F0B90B"></path>
</svg>