<svg width="20" height="20" viewBox="0 0 20 20" fill="none" xmlns="http://www.w3.org/2000/svg">
<g id="ic/20/download">
<mask id="mask0_141_981" style="mask-type:alpha" maskUnits="userSpaceOnUse" x="0" y="0" width="20" height="20">
<rect id="Rectangle 155" width="20" height="20" fill="#D9D9D9"/>
</mask>
<g mask="url(#mask0_141_981)">
<path id="Ellipse 32" d="M14 6C14 3.79086 12.2091 2 10 2C7.79086 2 6 3.79086 6 6" stroke="#E8EDF4" stroke-width="1.6" stroke-linecap="round"/>
<path id="Ellipse 33" d="M6 14C3.79086 14 2 12.2091 2 10C2 7.79086 3.79086 6 6 6" stroke="#E8EDF4" stroke-width="1.6" stroke-linecap="round"/>
<path id="Ellipse 34" d="M14 14C16.2091 14 18 12.2091 18 10C18 7.79086 16.2091 6 14 6" stroke="#E8EDF4" stroke-width="1.6" stroke-linecap="round"/>
<path id="Vector 17" d="M10 11L10 17" stroke="#E8EDF4" stroke-width="1.6" stroke-linecap="round" stroke-linejoin="round"/>
<path id="Vector 18" d="M12 16L10.0597 17.8293" stroke="#E8EDF4" stroke-width="1.6" stroke-linecap="round" stroke-linejoin="round"/>
<path id="Vector 19" d="M8 16L9.94028 17.8293" stroke="#E8EDF4" stroke-width="1.6" stroke-linecap="round" stroke-linejoin="round"/>
</g>
</g>
</svg>
