<svg fill="none" xmlns="http://www.w3.org/2000/svg">
    <path fill-rule="evenodd" clip-rule="evenodd"
        d="M15 4H18.5H21V6.5V8.5H18.5V6.5H15V4ZM5.83333 9.99805C4.54467 9.99805 3.5 11.0427 3.5 12.3314V13.998H11.5V12.3314C11.5 11.0427 10.4553 9.99805 9.16667 9.99805H5.83333ZM14.8333 16C13.5447 16 12.5 17.0447 12.5 18.3333V20H20.5V18.3333C20.5 17.0447 19.4553 16 18.1667 16H14.8333ZM9 17.5H5.5V15.5H3V17.5V20H5.5H9V17.5ZM19 12.502C19 13.8827 17.8807 15.002 16.5 15.002C15.1193 15.002 14 13.8827 14 12.502C14 11.1212 15.1193 10.002 16.5 10.002C17.8807 10.002 19 11.1212 19 12.502ZM7.5 9C8.88071 9 10 7.88071 10 6.5C10 5.11929 8.88071 4 7.5 4C6.11929 4 5 5.11929 5 6.5C5 7.88071 6.11929 9 7.5 9Z"
        fill="currentColor"></path>
</svg>