<svg width="18" height="18" viewBox="0 0 18 18" xmlns="http://www.w3.org/2000/svg">
<g id="ic/18/switch">
<mask id="mask0_151_1864" style="mask-type:alpha" maskUnits="userSpaceOnUse" x="0" y="0" width="18" height="18">
<rect id="Rectangle 196" width="18" height="18"/>
</mask>
<g mask="url(#mask0_151_1864)">
<path id="Vector" d="M15.6903 12.733C15.6628 12.7714 15.6299 12.8071 15.5914 12.8346L10.7569 16.411C10.5564 16.5594 10.2735 16.5182 10.1252 16.3176C10.0675 16.2407 10.0373 16.1446 10.0373 16.0484V13.7466H6.08728C3.27174 13.7631 1.74449 12.3704 1.50002 9.57135C1.74449 9.82681 2.81302 11.3376 6.08728 11.3376C8.26828 11.3376 9.58678 11.3129 10.0373 11.2634V9.05494C10.0373 8.80497 10.2405 8.60445 10.4877 8.60445C10.5811 8.60445 10.6718 8.63467 10.7487 8.68686L15.5804 12.1012C15.7864 12.2468 15.8331 12.5297 15.6903 12.733ZM11.5068 6.65693C9.32583 6.65693 8.00733 6.68165 7.55685 6.73109V8.93957C7.55685 9.18953 7.35358 9.39005 7.10636 9.39005C7.01297 9.39005 6.92232 9.35984 6.84541 9.30765L2.01093 5.89604C1.80766 5.75321 1.75822 5.47028 1.9038 5.26701C1.93127 5.22856 1.96423 5.19285 2.00269 5.16538L6.83442 1.58896C7.03494 1.44063 7.31787 1.48184 7.4662 1.68236C7.52388 1.75927 7.5541 1.85541 7.5541 1.95155V4.25342H11.5041C14.3196 4.23694 15.8469 5.6296 16.0913 8.42865C15.8469 8.1677 14.7783 6.65693 11.5068 6.65693Z" />
</g>
</g>
</svg>
