<?xml version="1.0" standalone="no"?><!DOCTYPE svg PUBLIC "-//W3C//DTD SVG 1.1//EN" "http://www.w3.org/Graphics/SVG/1.1/DTD/svg11.dtd"><svg t="1557927958391" class="icon" style="" viewBox="0 0 5034 1024" version="1.1" xmlns="http://www.w3.org/2000/svg" p-id="1701" xmlns:xlink="http://www.w3.org/1999/xlink" width="314.625" height="64"><defs><style type="text/css"></style></defs><path d="M9.258667 510.293333l113.92-113.493333 114.005333 113.493333-113.962667 113.493334zM513.877333 234.709333l195.2 194.56L823.125333 315.733333l-195.370666-194.474666-113.92-113.450667-114.005334 113.493333L204.586667 315.733333l113.92 113.536zM790.613333 510.293333L904.533333 396.8l113.92 113.493333-113.92 113.493334zM513.877333 785.834667l-195.370666-194.432-113.92 113.450666 195.242666 194.56 114.048 113.408 113.92-113.408 195.328-194.56-114.048-113.493333z" fill="#F0B90B" p-id="1702"></path><path d="M399.914667 510.336l113.962666-113.493333 113.962667 113.493333-113.92 113.493333z" fill="#F0B90B" p-id="1703"></path><path d="M1509.546667 785.834667h-263.253334V234.709333h256.938667c112.981333 0 182.613333 55.893333 182.613333 142.549334v1.493333c0 62.293333-33.28 96.853333-72.746666 118.997333 64 24.362667 103.978667 61.312 103.978666 135.424v1.493334c-0.469333 100.778667-82.602667 151.168-207.488 151.168z m55.381333-388.096c0-36.266667-28.586667-56.746667-79.957333-56.746667h-120.149334v116.565333h112.298667c53.717333 0 87.808-17.365333 87.808-58.325333v-1.493333z m30.72 220.458666c0-37.034667-27.605333-59.818667-90.112-59.818666h-140.714667v121.258666h144.768c53.717333 0 86.058667-18.986667 86.058667-59.946666v-1.493334z" fill="#F0B90B" p-id="1704"></path><path d="M1850.24 785.834667V234.709333h121.685333v551.125334zM2522.88 785.834667l-268.032-350.336v350.336h-120.149333V234.709333h112.298666l259.2 339.285334V234.709333h120.149334v551.125334z" fill="#F0B90B" p-id="1705"></path><path d="M3173.504 785.834667l-50.602667-123.562667H2888.96l-50.602667 123.562667h-124.16l237.141334-555.050667h112.298666l237.184 555.050667h-127.317333z m-167.509333-409.386667l-73.6 178.688h147.072l-73.472-178.688z" fill="#F0B90B" p-id="1706"></path><path d="M3777.706667 785.834667l-268.032-350.336v350.336h-120.149334V234.709333h112.298667l259.242667 339.285334V234.709333h120.618666v551.125334zM4282.752 795.306667a279.936 279.936 0 0 1-202.282667-81.706667 277.632 277.632 0 0 1-81.536-201.728v-1.578667c0-156.714667 118.613333-285.013333 288.810667-285.013333 103.978667 0 166.826667 34.517333 218.24 85.034667l-77.525333 88.917333c-42.666667-38.528-86.186667-62.122667-141.525334-62.122667-93.226667 0-160.469333 77.098667-160.469333 171.648v1.536c0 94.421333 65.621333 173.226667 160.469333 173.226667 63.317333 0 101.973333-25.173333 145.450667-64.512l77.525333 77.866667c-57.173333 60.672-119.893333 98.389333-227.157333 98.389333zM4607.744 785.834667V234.709333h417.621333v107.946667h-296.661333v111.701333h260.864v107.946667h-260.864v115.712h300.373333v107.818667z" fill="#F0B90B" p-id="1707"></path></svg>