<?xml version="1.0" encoding="UTF-8"?>
<svg width="13px" height="17px" viewBox="0 0 13 17" version="1.1" xmlns="http://www.w3.org/2000/svg" xmlns:xlink="http://www.w3.org/1999/xlink">
    <!-- Generator: Sketch 52.5 (67469) - http://www.bohemiancoding.com/sketch -->
    <title>Shape</title>
    <desc>Created with Sketch.</desc>
    <g id="Page-1" stroke="none" stroke-width="1" fill="none" fill-rule="evenodd">
        <g id="1920-copy-4" transform="translate(-573.000000, -1615.000000)" fill="#357CE1">
            <g id="分组-15" transform="translate(-760.000000, 1371.000000)">
                <g id="分组-27">
                    <g id="Group-60" transform="translate(1294.000000, 176.000000)">
                        <g id="分组-16" transform="translate(30.000000, 61.000000)">
                            <path d="M17.5045484,9.73010322 C18.3921711,8.61300496 18.1873351,7.39435231 18.1190564,7.29279792 C18.0166384,7.19124354 16.6852043,7.39435231 15.7634423,8.61300496 C14.9440982,9.73010322 14.9440982,10.9487559 15.0465162,11.0503103 C15.1489342,11.1518646 16.4803683,11.0503103 17.5045484,9.73010322 Z M19.6918073,15.8112635 C19.5928848,14.1846464 21.0767229,13.1680107 21.3734906,12.9646836 L21.3734906,12.86302 C21.3734906,12.86302 20.0874975,11.2364029 18.2079692,11.3380665 C17.0208987,11.43973 16.4273634,12.0497115 15.6359831,12.0497115 C14.6467576,12.0497115 13.7564548,11.3380665 12.6683068,11.3380665 C11.7780039,11.3380665 9.20601782,12.151375 9.00817271,15.6079364 C8.84330181,19.0644978 11.2174428,22.2838441 12.1077457,22.8938256 C12.9980486,23.503807 13.5915839,23.3004798 14.5808093,22.792162 C15.075422,22.4871713 16.6581827,22.3855077 17.5484856,22.9954891 C18.6366335,23.4021434 20.2193942,23.0971527 22,19.0306099 C21.7691807,19.0644978 19.7907299,18.5561799 19.6918073,15.8112635 Z" id="Shape"></path>
                        </g>
                    </g>
                </g>
            </g>
        </g>
    </g>
</svg>