<svg width="24" height="24" viewBox="0 0 24 24" fill="none" xmlns="http://www.w3.org/2000/svg">
<path d="M11.8965 9.35251C11.8193 9.35251 11.7428 9.3373 11.6714 9.30773C11.6001 9.27817 11.5352 9.23484 11.4806 9.18022C11.426 9.1256 11.3826 9.06075 11.3531 8.98938C11.3235 8.91801 11.3083 8.84152 11.3083 8.76427V5.8231C11.3083 5.66709 11.3703 5.51747 11.4806 5.40715C11.5909 5.29684 11.7405 5.23486 11.8965 5.23486C12.0525 5.23486 12.2022 5.29684 12.3125 5.40715C12.4228 5.51747 12.4848 5.66709 12.4848 5.8231V8.76427C12.4848 8.84152 12.4696 8.91801 12.44 8.98938C12.4104 9.06075 12.3671 9.1256 12.3125 9.18022C12.2579 9.23484 12.193 9.27817 12.1216 9.30773C12.0503 9.3373 11.9738 9.35251 11.8965 9.35251V9.35251ZM16.9906 15.2349C16.8873 15.2347 16.7858 15.2071 16.6965 15.1549L14.1495 13.6843C14.0792 13.6475 14.017 13.5969 13.9668 13.5355C13.9166 13.4741 13.8793 13.4031 13.8572 13.3269C13.8351 13.2508 13.8286 13.1709 13.8382 13.0921C13.8478 13.0134 13.8732 12.9374 13.9129 12.8687C13.9526 12.8 14.0057 12.74 14.0692 12.6924C14.1327 12.6448 14.2051 12.6106 14.2822 12.5917C14.3592 12.5728 14.4393 12.5697 14.5176 12.5826C14.5959 12.5955 14.6708 12.6241 14.7377 12.6666L17.2848 14.1372C17.3969 14.202 17.4845 14.3019 17.5341 14.4215C17.5836 14.5412 17.5923 14.6738 17.5588 14.7989C17.5253 14.9239 17.4515 15.0345 17.3487 15.1133C17.246 15.1921 17.1201 15.2349 16.9906 15.2349V15.2349ZM6.80241 15.2349C6.67293 15.2349 6.54706 15.1921 6.44433 15.1133C6.34161 15.0345 6.26776 14.9239 6.23425 14.7989C6.20073 14.6738 6.20943 14.5412 6.25897 14.4215C6.30852 14.3019 6.39616 14.202 6.5083 14.1372L9.05535 12.6666C9.12231 12.6241 9.19717 12.5955 9.27546 12.5826C9.35374 12.5697 9.43382 12.5728 9.51087 12.5917C9.58793 12.6106 9.66037 12.6448 9.72384 12.6924C9.78731 12.74 9.8405 12.8 9.8802 12.8687C9.91991 12.9374 9.9453 13.0134 9.95487 13.0921C9.96444 13.1709 9.95797 13.2508 9.93587 13.3269C9.91376 13.4031 9.87648 13.4741 9.82625 13.5355C9.77602 13.5969 9.71389 13.6475 9.64359 13.6843L7.09653 15.1549C7.00731 15.2071 6.90581 15.2347 6.80241 15.2349V15.2349Z" fill="#14181F" stroke="#14181F" stroke-width="0.588235"/>
<path d="M11.8965 9.35251C11.8193 9.35251 11.7428 9.3373 11.6714 9.30773C11.6001 9.27817 11.5352 9.23484 11.4806 9.18022C11.426 9.1256 11.3826 9.06075 11.3531 8.98938C11.3235 8.91801 11.3083 8.84152 11.3083 8.76427V5.8231C11.3083 5.66709 11.3703 5.51747 11.4806 5.40715C11.5909 5.29684 11.7405 5.23486 11.8965 5.23486C12.0525 5.23486 12.2022 5.29684 12.3125 5.40715C12.4228 5.51747 12.4848 5.66709 12.4848 5.8231V8.76427C12.4848 8.84152 12.4696 8.91801 12.44 8.98938C12.4104 9.06075 12.3671 9.1256 12.3125 9.18022C12.2579 9.23484 12.193 9.27817 12.1216 9.30773C12.0503 9.3373 11.9738 9.35251 11.8965 9.35251V9.35251ZM16.9906 15.2349C16.8873 15.2347 16.7858 15.2071 16.6965 15.1549L14.1495 13.6843C14.0792 13.6475 14.017 13.5969 13.9668 13.5355C13.9166 13.4741 13.8793 13.4031 13.8572 13.3269C13.8351 13.2508 13.8286 13.1709 13.8382 13.0921C13.8478 13.0134 13.8732 12.9374 13.9129 12.8687C13.9526 12.8 14.0057 12.74 14.0692 12.6924C14.1327 12.6448 14.2051 12.6106 14.2822 12.5917C14.3592 12.5728 14.4393 12.5697 14.5176 12.5826C14.5959 12.5955 14.6708 12.6241 14.7377 12.6666L17.2848 14.1372C17.3969 14.202 17.4845 14.3019 17.5341 14.4215C17.5836 14.5412 17.5923 14.6738 17.5588 14.7989C17.5253 14.9239 17.4515 15.0345 17.3487 15.1133C17.246 15.1921 17.1201 15.2349 16.9906 15.2349V15.2349ZM6.80241 15.2349C6.67293 15.2349 6.54706 15.1921 6.44433 15.1133C6.34161 15.0345 6.26776 14.9239 6.23425 14.7989C6.20073 14.6738 6.20943 14.5412 6.25897 14.4215C6.30852 14.3019 6.39616 14.202 6.5083 14.1372L9.05535 12.6666C9.12231 12.6241 9.19717 12.5955 9.27546 12.5826C9.35374 12.5697 9.43382 12.5728 9.51087 12.5917C9.58793 12.6106 9.66037 12.6448 9.72384 12.6924C9.78731 12.74 9.8405 12.8 9.8802 12.8687C9.91991 12.9374 9.9453 13.0134 9.95487 13.0921C9.96444 13.1709 9.95797 13.2508 9.93587 13.3269C9.91376 13.4031 9.87648 13.4741 9.82625 13.5355C9.77602 13.5969 9.71389 13.6475 9.64359 13.6843L7.09653 15.1549C7.00731 15.2071 6.90581 15.2347 6.80241 15.2349V15.2349Z" fill="#14181F" stroke="#14181F" stroke-width="0.588235"/>
<path d="M22 2H2V22.5882H6.11765L7.29412 20.2353H16.7059L17.8824 22.5882H22V2Z" stroke="#14181F" stroke-width="1.76471"/>
<path d="M22 2H2V22.5882H6.11765L7.29412 20.2353H16.7059L17.8824 22.5882H22V2Z" stroke="#14181F" stroke-width="1.76471"/>
<path d="M11.8965 15.2351C11.1984 15.2351 10.5161 15.0281 9.93564 14.6403C9.35523 14.2525 8.90286 13.7012 8.63573 13.0563C8.36859 12.4114 8.2987 11.7018 8.43488 11.0171C8.57107 10.3325 8.90721 9.70361 9.40081 9.21001C9.8944 8.71641 10.5233 8.38027 11.2079 8.24409C11.8926 8.1079 12.6022 8.1778 13.2471 8.44493C13.892 8.71206 14.4433 9.16444 14.8311 9.74485C15.2189 10.3253 15.4259 11.0076 15.4259 11.7057C15.425 12.6415 15.0528 13.5386 14.3911 14.2003C13.7294 14.862 12.8323 15.2342 11.8965 15.2351V15.2351ZM11.8965 9.35274C11.4311 9.35274 10.9762 9.49074 10.5893 9.74928C10.2023 10.0078 9.90073 10.3753 9.72264 10.8053C9.54456 11.2352 9.49796 11.7083 9.58875 12.1647C9.67954 12.6211 9.90363 13.0404 10.2327 13.3695C10.5618 13.6985 10.981 13.9226 11.4374 14.0134C11.8939 14.1042 12.367 14.0576 12.7969 13.8795C13.2269 13.7014 13.5943 13.3998 13.8529 13.0129C14.1114 12.626 14.2494 12.1711 14.2494 11.7057C14.2485 11.0819 14.0003 10.484 13.5592 10.0429C13.1182 9.60187 12.5202 9.35368 11.8965 9.35274V9.35274Z" fill="#14181F" stroke="#14181F" stroke-width="0.588235"/>
<path d="M11.8965 15.2351C11.1984 15.2351 10.5161 15.0281 9.93564 14.6403C9.35523 14.2525 8.90286 13.7012 8.63573 13.0563C8.36859 12.4114 8.2987 11.7018 8.43488 11.0171C8.57107 10.3325 8.90721 9.70361 9.40081 9.21001C9.8944 8.71641 10.5233 8.38027 11.2079 8.24409C11.8926 8.1079 12.6022 8.1778 13.2471 8.44493C13.892 8.71206 14.4433 9.16444 14.8311 9.74485C15.2189 10.3253 15.4259 11.0076 15.4259 11.7057C15.425 12.6415 15.0528 13.5386 14.3911 14.2003C13.7294 14.862 12.8323 15.2342 11.8965 15.2351V15.2351ZM11.8965 9.35274C11.4311 9.35274 10.9762 9.49074 10.5893 9.74928C10.2023 10.0078 9.90073 10.3753 9.72264 10.8053C9.54456 11.2352 9.49796 11.7083 9.58875 12.1647C9.67954 12.6211 9.90363 13.0404 10.2327 13.3695C10.5618 13.6985 10.981 13.9226 11.4374 14.0134C11.8939 14.1042 12.367 14.0576 12.7969 13.8795C13.2269 13.7014 13.5943 13.3998 13.8529 13.0129C14.1114 12.626 14.2494 12.1711 14.2494 11.7057C14.2485 11.0819 14.0003 10.484 13.5592 10.0429C13.1182 9.60187 12.5202 9.35368 11.8965 9.35274V9.35274Z" fill="#14181F" stroke="#14181F" stroke-width="0.588235"/>
</svg>
