<?xml version="1.0" encoding="UTF-8"?>
<svg width="13px" height="18px" viewBox="0 0 13 18" version="1.1" xmlns="http://www.w3.org/2000/svg" xmlns:xlink="http://www.w3.org/1999/xlink">
    <!-- Generator: Sketch 52.5 (67469) - http://www.bohemiancoding.com/sketch -->
    <title>Shape</title>
    <desc>Created with Sketch.</desc>
    <g id="Page-1" stroke="none" stroke-width="1" fill="none" fill-rule="evenodd">
        <g id="1920-copy-4" transform="translate(-784.000000, -1615.000000)" fill="#357CE1">
            <g id="分组-15" transform="translate(-760.000000, 1371.000000)">
                <g id="分组-27">
                    <g id="Group-60" transform="translate(1294.000000, 176.000000)">
                        <g id="Group-51">
                            <g id="Group-45" transform="translate(241.000000, 61.250000)">
                                <path d="M17.3613026,10.6237709 L17.3613026,9.90154822 L16.7099789,9.90154822 L16.7099789,10.6237709 L17.3613026,10.6237709 Z M14.0570259,10.6237709 L14.0570259,9.90154822 L13.4057022,9.90154822 L13.4057022,10.6237709 L14.0570259,10.6237709 Z M18.0523406,8.52710522 C19.1484707,9.3588405 19.6965357,10.4861897 19.6965357,11.9091529 L11.7535639,11.9091529 C11.7535639,10.4642405 12.2914796,9.33689128 13.367311,8.52710522 L12.4982175,7.60733955 C12.3327389,7.43221281 12.3327389,7.26806067 12.4982175,7.11488314 C12.6636961,6.96170562 12.8188047,6.96170562 12.9635433,7.11488314 L13.9564148,8.16564361 C14.4943305,7.85928856 15.0838755,7.70611104 15.7250498,7.70611104 C16.3454842,7.70611104 16.9246592,7.85928856 17.4625749,8.16564361 L18.4554464,7.11488314 C18.620925,6.96170562 18.7760336,6.96170562 18.9207722,7.11488314 C19.0655108,7.26806067 19.0655108,7.43221281 18.9207722,7.60733955 L18.0523406,8.52710522 Z M21.007127,12.803098 C21.2758643,12.803098 21.5086375,12.9070065 21.7054466,13.1148236 C21.9022558,13.3226407 22.0004398,13.5689856 21.9999985,13.8538585 L21.9999985,18.7461992 C21.9999985,19.0525543 21.9018146,19.3042698 21.7054466,19.5013457 C21.5090787,19.6984217 21.2763055,19.7969597 21.007127,19.7969597 C20.7379485,19.7969597 20.5051753,19.6984217 20.3088074,19.5013457 C20.1124395,19.3042698 20.0142556,19.0525543 20.0142556,18.7461992 L20.0142556,13.8538585 C20.0142556,13.5694526 20.1124395,13.3231077 20.3088074,13.1148236 C20.5051753,12.9065395 20.7379485,12.802631 21.007127,12.803098 Z M9.99287148,12.803098 C10.2616087,12.803098 10.4943819,12.9070065 10.6911911,13.1148236 C10.8880003,13.3226407 10.9861842,13.5689856 10.985743,13.8538585 L10.985743,18.7461992 C10.985743,19.0525543 10.887559,19.3042698 10.6911911,19.5013457 C10.4948232,19.6984217 10.26205,19.7969597 9.99287148,19.7969597 C9.72369299,19.7969597 9.49091979,19.6984217 9.29455187,19.5013457 C9.09818396,19.3042698 9,19.0525543 9,18.7461992 L9,13.8538585 C9,13.5694526 9.09818396,13.3231077 9.29455187,13.1148236 C9.49091979,12.9065395 9.72369299,12.802631 9.99287148,12.803098 Z M11.7535639,19.7969581 L11.7535639,12.8030964 L19.6965357,12.8030964 L19.6965357,19.7969581 C19.6965357,19.9940341 19.6345364,20.1581862 19.5105378,20.2894145 C19.3865392,20.4206428 19.2314306,20.486257 19.045212,20.486257 L18.3627784,20.486257 L18.3627784,22.9492395 C18.3627784,23.2555946 18.2645944,23.5073101 18.0682265,23.7043861 C17.8718586,23.901462 17.6390854,24 17.3699069,24 C17.1007284,24 16.8679552,23.901462 16.6715873,23.7043861 C16.4752194,23.5073101 16.3770354,23.2555946 16.3770354,22.9492395 L16.3770354,20.486257 L15.0737261,20.486257 L15.0737261,22.9492395 C15.0737261,23.2555946 14.9755422,23.5073101 14.7791742,23.7043861 C14.5828063,23.901462 14.3500331,24 14.0808546,24 C13.8116761,24 13.5789029,23.901462 13.382535,23.7043861 C13.1861671,23.5073101 13.0879831,23.2555946 13.0879831,22.9492395 L13.0879831,20.486257 L12.4055495,20.486257 C12.2193309,20.486257 12.0642223,20.4206428 11.9402237,20.2894145 C11.8162251,20.1581862 11.7542258,19.9940341 11.7542258,19.7969581 L11.7535639,19.7969581 Z" id="Shape"></path>
                            </g>
                        </g>
                    </g>
                </g>
            </g>
        </g>
    </g>
</svg>