<?xml version="1.0" standalone="no"?><!DOCTYPE svg PUBLIC "-//W3C//DTD SVG 1.1//EN" "http://www.w3.org/Graphics/SVG/1.1/DTD/svg11.dtd"><svg t="1695744693974" class="icon" viewBox="0 0 1024 1024" version="1.1" xmlns="http://www.w3.org/2000/svg" p-id="16175" xmlns:xlink="http://www.w3.org/1999/xlink" width="64" height="64"><path d="M512.512 78.848c-238.08 0-431.616 193.536-431.616 431.616S274.432 942.08 512.512 942.08s431.616-193.536 431.616-431.616c0-237.568-193.536-431.616-431.616-431.616z m0 802.304c-204.288 0-370.176-165.888-370.176-370.176S308.224 140.8 512.512 140.8s370.176 165.888 370.176 370.176S716.8 881.152 512.512 881.152z" fill="#ffffff" p-id="16176"></path><path d="M534.016 338.944c-11.776-11.776-31.232-11.776-43.52 0L340.48 488.96c-5.632 5.632-9.216 13.824-9.216 21.504 0 8.192 3.072 15.872 9.216 21.504l150.016 150.016c5.632 5.632 13.824 9.216 21.504 9.216s15.872-3.072 21.504-9.216L683.52 531.968c5.632-5.632 9.216-13.824 9.216-21.504 0-8.192-3.072-15.872-9.216-21.504L534.016 338.944z m-21.504 278.528L405.504 510.976 512 404.48l106.496 106.496-105.984 106.496z" fill="#ffffff" p-id="16177"></path></svg>