<svg width="32" height="30" viewBox="0 0 32 30" fill="none" xmlns="http://www.w3.org/2000/svg">
<g id="Group 76">
<path id="Subtract" fill-rule="evenodd" clip-rule="evenodd" d="M28.4883 15.3896C28.6233 15.2463 28.7316 15.1315 28.8111 15.0507V15.0489C29.6476 14.1977 32.7951 13.863 31.8117 17.7953C30.8282 21.7275 25.7514 26.0836 21.7959 28.0861C18.0044 30.0082 13.7136 30.0034 10.499 29.9998C10.3615 29.9996 10.2261 29.9995 10.0927 29.9995C8.19207 29.9995 5.37241 29.8303 1.63376 29.4956C1.18771 29.4556 0.7726 29.2475 0.470204 28.9122C0.167807 28.5769 5.40705e-05 28.1387 1.2076e-07 27.6841V23.5936C-0.000131398 23.2299 0.107167 22.8744 0.308029 22.5732C0.508892 22.272 0.794093 22.0389 1.12679 21.904C2.207 21.4638 3.01492 21.111 3.54518 20.8418C5.00256 20.105 6.20267 19.4585 7.14213 18.9524C8.39905 18.2752 9.18941 17.8494 9.50516 17.7953C10.5872 17.6079 11.8035 17.9826 11.8035 19.494C11.8035 20.5035 10.6767 22.0149 8.42136 24.0283C12.3678 24.132 15.9417 23.5718 19.1393 22.3532C23.4812 20.6989 27.2009 16.7547 28.4883 15.3896Z" fill="#9FEF4E"/>
<path id="Subtract_2" fill-rule="evenodd" clip-rule="evenodd" d="M11.8294 1.48354C13.5585 0.509933 15.5033 -0.00062106 17.4805 5.66969e-07C19.0096 5.66969e-07 20.5237 0.305792 21.9365 0.899915C23.3492 1.49404 24.6328 2.36486 25.7141 3.46265C26.7953 4.56045 27.653 5.86372 28.2382 7.29806C28.8234 8.7324 29.1246 10.2697 29.1246 11.8222C26.9426 14.9415 23.539 18.4045 20.3557 19.9323C17.1723 21.4583 14.5372 21.6983 12.6132 21.6983C14.2918 19.4467 13.8583 17.7806 12.8103 16.7148C11.7623 15.6526 10.2235 15.4598 7.02049 17.024C6.15053 15.2213 5.74701 13.2235 5.84795 11.2186C5.9489 9.21383 6.55099 7.26814 7.59747 5.56494C8.64396 3.86175 10.1004 2.45715 11.8294 1.48354ZM17.776 13.9322C19.5569 13.9322 21.0006 12.4664 21.0006 10.6583C21.0006 8.85022 19.5569 7.38447 17.776 7.38447C15.9952 7.38447 14.5515 8.85022 14.5515 10.6583C14.5515 12.4664 15.9952 13.9322 17.776 13.9322Z" fill="#FFEB34"/>
</g>
</svg>
