<?xml version="1.0" standalone="no"?><!DOCTYPE svg PUBLIC "-//W3C//DTD SVG 1.1//EN" "http://www.w3.org/Graphics/SVG/1.1/DTD/svg11.dtd"><svg t="1695744657514" class="icon" viewBox="0 0 1024 1024" version="1.1" xmlns="http://www.w3.org/2000/svg" p-id="14890" xmlns:xlink="http://www.w3.org/1999/xlink" width="64" height="64"><path d="M784.5 614.6c44.9 0 89.7 14.8 124.6 39.3h5V74.1c0-29.5-19.9-49.2-49.9-49.2H116.5c-29.9 0-49.9 19.7-49.9 49.2v835.4c0 29.5 19.9 49.2 49.9 49.2h483.6c-24.9-34.4-39.9-78.6-39.9-122.8 0.1-123 99.8-221.3 224.3-221.3z m-246.9-252L347.8 584.7c-14.2 16.2-22.2 14.2-16.2-8.1L372 409h-70.7c-22.2 0-34.3-16.2-28.3-38.4L335.7 185c6.1-22.2 30.3-38.4 52.5-38.4h60.6c22.2 0 32.3 16.2 24.2 36.3L422.5 302h86.8c44.4 0 56.5 28.3 28.3 60.6z" p-id="14891" fill="#ffffff"></path><path d="M797.2 665.2c-100-3.4-171 75.8-173.7 160-3.4 99.9 75.9 171 160.5 173.7 98.2 3.1 173.3-75.8 173.3-166.9-0.5-93.3-74.6-163.9-160.1-166.8z m102.7 112.6l-134 134c-9.1 9.2-17.2 8.1-24.9 0.4l-61.1-61.1s-10.5-15.4 2.2-26.5c12.8-11.3 25.2 0 25.2 0l45.8 45.9L873 750.3s12-11.1 25.2 1.3c13.5 12.6 1.7 26.2 1.7 26.2z" p-id="14892" fill="#ffffff"></path></svg>