<svg width="24" height="24" fill="none" xmlns="http://www.w3.org/2000/svg"><path d="M21.543 4.295C16.515 4.158 13.266 1.79 12.3.985a.472.472 0 00-.3-.111.48.48 0 00-.3.108c-.96.809-4.212 3.176-9.24 3.313a.465.465 0 00-.46.46v9.438c0 4.224 6.34 9.202 10 9.202 3.56 0 10-4.978 10-9.202V4.758a.465.465 0 00-.457-.463zm-1.403 9.9c0 3.15-5.584 7.34-8.137 7.34-1.296 0-3.415-1.054-5.153-2.562-1.843-1.598-2.987-3.43-2.987-4.777V6.073C7.694 5.686 10.457 4.184 12 3.101c1.543 1.083 4.306 2.585 8.137 2.972v8.123h.003z" fill="#14181F"/><path d="M9.228 11.539l-.595-.6-1.201 1.19.596.601 1.2-1.191zm1.668 2.881l-.6.596.534.538.594-.473-.528-.66zm6.26-3.91l.66-.528-1.054-1.322-.661.527 1.054 1.323zm-9.128 2.22l2.268 2.286 1.2-1.192-2.268-2.285-1.2 1.191zm3.396 2.351l5.731-4.571-1.054-1.323-5.732 4.572 1.055 1.322z" fill="#14181F"/></svg>